<svg width="18" height="14" viewBox="0 0 18 14" fill="none" xmlns="http://www.w3.org/2000/svg">
<path d="M1.5 3.66666L11.5 3.66666M11.5 3.66666C11.5 5.04737 12.6193 6.16666 14 6.16666C15.3807 6.16666 16.5 5.04737 16.5 3.66666C16.5 2.28594 15.3807 1.16666 14 1.16666C12.6193 1.16666 11.5 2.28595 11.5 3.66666ZM6.5 10.3333L16.5 10.3333M6.5 10.3333C6.5 11.714 5.38071 12.8333 4 12.8333C2.61929 12.8333 1.5 11.714 1.5 10.3333C1.5 8.95261 2.61929 7.83332 4 7.83332C5.38071 7.83332 6.5 8.95261 6.5 10.3333Z" stroke="#354153" stroke-width="2" stroke-linecap="round" stroke-linejoin="round"/>
</svg>
